<svg xmlns="http://www.w3.org/2000/svg" xmlns:xlink="http://www.w3.org/1999/xlink" width="540" viewBox="0 0 404.88 135.000003" height="180" preserveAspectRatio="xMidYMid meet"><defs><filter x="0%" y="0%" width="100%" height="100%" id="e82708983a"></filter><filter x="0%" y="0%" width="100%" height="100%" id="e34108ecae"></filter><clipPath id="adaf5bb756"><path d="M 1.429688 0 L 403.332031 0 L 403.332031 134.007812 L 1.429688 134.007812 Z M 1.429688 0 " clip-rule="nonzero"></path></clipPath><clipPath id="3ff06ce83b"><path d="M 1.429688 0 L 232 0 L 232 134.007812 L 1.429688 134.007812 Z M 1.429688 0 " clip-rule="nonzero"></path></clipPath><image x="0" y="0" width="1251" id="532af4a0e1" height="1251" preserveAspectRatio="xMidYMid meet"></image><mask id="6af6396d25"><g filter="url(#e82708983a)"><g filter="url(#e34108ecae)" transform="matrix(0.198767, 0, 0, 0.198767, -16.461182, -40.168435)"><image x="0" y="0" width="1251" height="1251" preserveAspectRatio="xMidYMid meet"></image></g></g></mask><image x="0" y="0" width="1251" id="c5290d5864" height="1251" preserveAspectRatio="xMidYMid meet"></image></defs><g clip-path="url(#adaf5bb756)"><path fill="#ffffff" d="M 1.429688 0 L 403.449219 0 L 403.449219 134.007812 L 1.429688 134.007812 Z M 1.429688 0 " fill-opacity="1" fill-rule="nonzero"></path><path fill="#f5f5dc" d="M 1.429688 0 L 403.449219 0 L 403.449219 134.007812 L 1.429688 134.007812 Z M 1.429688 0 " fill-opacity="1" fill-rule="nonzero"></path></g><g clip-path="url(#3ff06ce83b)"><g mask="url(#6af6396d25)"><g transform="matrix(0.198767, 0, 0, 0.198767, -16.461182, -40.168435)"><image x="0" y="0" width="1251" height="1251" preserveAspectRatio="xMidYMid meet"></image></g></g></g></svg>